<svg class="diagram-root" style="background: white" xmlns="http://www.w3.org/2000/svg" xmlns:xlink="http://www.w3.org/1999/xlink"><style>.diagram-root { font-family: "Helvetica Neue", sans-serif; font-size: 12px; } .t { overflow: visible; } .t-bg { y: 40; fill: white; stroke: #323c46; stroke-width: 2; } .th { fill: white; stroke: #323c46; stroke-width: 2; } .tht { fill: #323c46; font-size: 14px; font-weight: bold; } .tf { fill: #323c46; overflow: visible; } .tf.pk { fill: #323c46; font-weight: bold; } .tf.fk { font-weight: bold; } .ty { fill: #323c46; font-weight: normal; text-anchor: end; } .r { fill: transparent; stroke: #4e4e4e; stroke-width: 1; } .l { stroke: 1; } .i { fill: #a0a0a0; stroke: #a0a0a0; } .i.ix { fill: #a0a0a0; stroke: #000; } .fa { fill: transparent; overflow: visible; } .fa .bg.hover { fill: #f3f3f3; } .c { cy: 12; r: 4; stroke: #424242; fill: #424242; } .hr { fill: transparent; stroke: #323c46; stroke-opacity: 0.035; stroke-width: 13; } .dc { stroke: #fa5a3c; fill: #fa5a3c; } .x { stroke: white; stroke-width: 1; } .hl .th { fill: #323c46; } .hl .tht { fill: white; } .fhl .bg { fill: #efefef; } .fhls .bg {  } .r.hl { stroke: black; } .dim { opacity: 0.25; }</style><g class="drawing-wrapper" transform="translate(-6.964285714285715, 56.85714285714286) scale(1,1)"><g class="rs"><path d="M 256.63 34.25 m -1, 0 a 1,1 0 1,0 2,0 a 1,1 0 1,0 -2,0 M 256.63 34.25 m -0.5, 0 a 0.5,0.5 0 1,0 1,0 a 0.5,0.5 0 1,0 -1,0  M256.63 34.25 L256.63 34.25 268.63 34.25 M 256.63 40.25 m -1, 0 a 1,1 0 1,0 2,0 a 1,1 0 1,0 -2,0 M 256.63 40.25 m -0.5, 0 a 0.5,0.5 0 1,0 1,0 a 0.5,0.5 0 1,0 -1,0  M256.63 40.25 L256.63 40.25 263.63 34.25 256.63 28.25 M 256.63 28.25 m -1, 0 a 1,1 0 1,0 2,0 a 1,1 0 1,0 -2,0 M 256.63 28.25 m -0.5, 0 a 0.5,0.5 0 1,0 1,0 a 0.5,0.5 0 1,0 -1,0  M268.63 34.25 Q 287.6 34.25, 306.57 95.88 T 344.5 157.5 M 356.5 157.5 m -1, 0 a 1,1 0 1,0 2,0 a 1,1 0 1,0 -2,0 M 356.5 157.5 m -0.5, 0 a 0.5,0.5 0 1,0 1,0 a 0.5,0.5 0 1,0 -1,0  M356.5 157.5 L356.5 157.5 344.5 157.5 M350.5 163.5 L350.5 163.5 350.5 151.5" id="h4232534043" class="r"></path><path d="M 253.72 292.25 m -1, 0 a 1,1 0 1,0 2,0 a 1,1 0 1,0 -2,0 M 253.72 292.25 m -0.5, 0 a 0.5,0.5 0 1,0 1,0 a 0.5,0.5 0 1,0 -1,0  M253.72 292.25 L253.72 292.25 265.72 292.25 M 253.72 298.25 m -1, 0 a 1,1 0 1,0 2,0 a 1,1 0 1,0 -2,0 M 253.72 298.25 m -0.5, 0 a 0.5,0.5 0 1,0 1,0 a 0.5,0.5 0 1,0 -1,0  M253.72 298.25 L253.72 298.25 260.72 292.25 253.72 286.25 M 253.72 286.25 m -1, 0 a 1,1 0 1,0 2,0 a 1,1 0 1,0 -2,0 M 253.72 286.25 m -0.5, 0 a 0.5,0.5 0 1,0 1,0 a 0.5,0.5 0 1,0 -1,0  M265.72 292.25 Q 285.42 292.25, 305.11 249.88 T 344.5 207.5 M 356.5 207.5 m -1, 0 a 1,1 0 1,0 2,0 a 1,1 0 1,0 -2,0 M 356.5 207.5 m -0.5, 0 a 0.5,0.5 0 1,0 1,0 a 0.5,0.5 0 1,0 -1,0  M356.5 207.5 L356.5 207.5 344.5 207.5 M350.5 213.5 L350.5 213.5 350.5 201.5" id="h1165146666" class="r"></path><path d="M 603.25 30.5 m -1, 0 a 1,1 0 1,0 2,0 a 1,1 0 1,0 -2,0 M 603.25 30.5 m -0.5, 0 a 0.5,0.5 0 1,0 1,0 a 0.5,0.5 0 1,0 -1,0  M603.25 30.5 L603.25 30.5 591.25 30.5 M 603.25 36.5 m -1, 0 a 1,1 0 1,0 2,0 a 1,1 0 1,0 -2,0 M 603.25 36.5 m -0.5, 0 a 0.5,0.5 0 1,0 1,0 a 0.5,0.5 0 1,0 -1,0  M603.25 36.5 L603.25 36.5 596.25 30.5 603.25 24.5 M 603.25 24.5 m -1, 0 a 1,1 0 1,0 2,0 a 1,1 0 1,0 -2,0 M 603.25 24.5 m -0.5, 0 a 0.5,0.5 0 1,0 1,0 a 0.5,0.5 0 1,0 -1,0  M591.25 30.5 Q 573.41 30.5, 555.57 69 T 519.88 107.5 M 507.88 107.5 m -1, 0 a 1,1 0 1,0 2,0 a 1,1 0 1,0 -2,0 M 507.88 107.5 m -0.5, 0 a 0.5,0.5 0 1,0 1,0 a 0.5,0.5 0 1,0 -1,0  M507.88 107.5 L507.88 107.5 519.88 107.5 M513.88 113.5 L513.88 113.5 513.88 101.5" id="h2558411332" class="r"></path><path d="M 770.27 328.82 m -1, 0 a 1,1 0 1,0 2,0 a 1,1 0 1,0 -2,0 M 770.27 328.82 m -0.5, 0 a 0.5,0.5 0 1,0 1,0 a 0.5,0.5 0 1,0 -1,0  M770.27 328.82 L770.27 328.82 782.27 328.82 M 770.27 334.82 m -1, 0 a 1,1 0 1,0 2,0 a 1,1 0 1,0 -2,0 M 770.27 334.82 m -0.5, 0 a 0.5,0.5 0 1,0 1,0 a 0.5,0.5 0 1,0 -1,0  M770.27 334.82 L770.27 334.82 777.27 328.82 770.27 322.82 M 770.27 322.82 m -1, 0 a 1,1 0 1,0 2,0 a 1,1 0 1,0 -2,0 M 770.27 322.82 m -0.5, 0 a 0.5,0.5 0 1,0 1,0 a 0.5,0.5 0 1,0 -1,0  M782.27 328.82 Q 799.31 328.82, 816.35 204.48 T 850.43 80.14 M 862.43 80.14 m -1, 0 a 1,1 0 1,0 2,0 a 1,1 0 1,0 -2,0 M 862.43 80.14 m -0.5, 0 a 0.5,0.5 0 1,0 1,0 a 0.5,0.5 0 1,0 -1,0  M862.43 80.14 L862.43 80.14 850.43 80.14 M856.43 86.14 L856.43 86.14 856.43 74.14" id="h961324396" class="r"></path><path d="M 862.43 55.14 m -1, 0 a 1,1 0 1,0 2,0 a 1,1 0 1,0 -2,0 M 862.43 55.14 m -0.5, 0 a 0.5,0.5 0 1,0 1,0 a 0.5,0.5 0 1,0 -1,0  M862.43 55.14 L862.43 55.14 850.43 55.14 M 862.43 61.14 m -1, 0 a 1,1 0 1,0 2,0 a 1,1 0 1,0 -2,0 M 862.43 61.14 m -0.5, 0 a 0.5,0.5 0 1,0 1,0 a 0.5,0.5 0 1,0 -1,0  M862.43 61.14 L862.43 61.14 855.43 55.14 862.43 49.14 M 862.43 49.14 m -1, 0 a 1,1 0 1,0 2,0 a 1,1 0 1,0 -2,0 M 862.43 49.14 m -0.5, 0 a 0.5,0.5 0 1,0 1,0 a 0.5,0.5 0 1,0 -1,0  M850.43 55.14 Q 835.15 55.14, 819.87 55.32 T 789.3 55.5 M 777.3 55.5 m -1, 0 a 1,1 0 1,0 2,0 a 1,1 0 1,0 -2,0 M 777.3 55.5 m -0.5, 0 a 0.5,0.5 0 1,0 1,0 a 0.5,0.5 0 1,0 -1,0  M777.3 55.5 L777.3 55.5 789.3 55.5 M783.3 61.5 L783.3 61.5 783.3 49.5" id="h3690099745" class="r"></path><path d="M 1018.43 353.07 m -1, 0 a 1,1 0 1,0 2,0 a 1,1 0 1,0 -2,0 M 1018.43 353.07 m -0.5, 0 a 0.5,0.5 0 1,0 1,0 a 0.5,0.5 0 1,0 -1,0  M1018.43 353.07 L1018.43 353.07 1030.4299999999998 353.07 M 1018.43 359.07 m -1, 0 a 1,1 0 1,0 2,0 a 1,1 0 1,0 -2,0 M 1018.43 359.07 m -0.5, 0 a 0.5,0.5 0 1,0 1,0 a 0.5,0.5 0 1,0 -1,0  M1018.43 359.07 L1018.43 359.07 1025.4299999999998 353.07 1018.43 347.07 M 1018.43 347.07 m -1, 0 a 1,1 0 1,0 2,0 a 1,1 0 1,0 -2,0 M 1018.43 347.07 m -0.5, 0 a 0.5,0.5 0 1,0 1,0 a 0.5,0.5 0 1,0 -1,0  M1030.4299999999998 353.07 C 1080.5100000000002 353.07, 1080.48 80.14, 1030.48 80.14 M 1018.48 80.14 m -1, 0 a 1,1 0 1,0 2,0 a 1,1 0 1,0 -2,0 M 1018.48 80.14 m -0.5, 0 a 0.5,0.5 0 1,0 1,0 a 0.5,0.5 0 1,0 -1,0  M1018.48 80.14 L1018.48 80.14 1030.48 80.14 M1024.48 86.14 L1024.48 86.14 1024.48 74.14" id="h93918781" class="r"></path><path d="M 356.43 375.39 m -1, 0 a 1,1 0 1,0 2,0 a 1,1 0 1,0 -2,0 M 356.43 375.39 m -0.5, 0 a 0.5,0.5 0 1,0 1,0 a 0.5,0.5 0 1,0 -1,0  M356.43 375.39 L356.43 375.39 344.43 375.39 M 356.43 381.39 m -1, 0 a 1,1 0 1,0 2,0 a 1,1 0 1,0 -2,0 M 356.43 381.39 m -0.5, 0 a 0.5,0.5 0 1,0 1,0 a 0.5,0.5 0 1,0 -1,0  M356.43 381.39 L356.43 381.39 349.43 375.39 356.43 369.39 M 356.43 369.39 m -1, 0 a 1,1 0 1,0 2,0 a 1,1 0 1,0 -2,0 M 356.43 369.39 m -0.5, 0 a 0.5,0.5 0 1,0 1,0 a 0.5,0.5 0 1,0 -1,0  M344.43 375.39 C 294.43 375.39, 294.38800000000003 82.5, 344.5 82.5 M 356.5 82.5 m -1, 0 a 1,1 0 1,0 2,0 a 1,1 0 1,0 -2,0 M 356.5 82.5 m -0.5, 0 a 0.5,0.5 0 1,0 1,0 a 0.5,0.5 0 1,0 -1,0  M356.5 82.5 L356.5 82.5 344.5 82.5 M350.5 88.5 L350.5 88.5 350.5 76.5" id="h314487589" class="r"></path><path d="M 356.43 425.39 m -1, 0 a 1,1 0 1,0 2,0 a 1,1 0 1,0 -2,0 M 356.43 425.39 m -0.5, 0 a 0.5,0.5 0 1,0 1,0 a 0.5,0.5 0 1,0 -1,0  M356.43 425.39 L356.43 425.39 344.43 425.39 M 356.43 431.39 m -1, 0 a 1,1 0 1,0 2,0 a 1,1 0 1,0 -2,0 M 356.43 431.39 m -0.5, 0 a 0.5,0.5 0 1,0 1,0 a 0.5,0.5 0 1,0 -1,0  M356.43 431.39 L356.43 431.39 349.43 425.39 356.43 419.39 M 356.43 419.39 m -1, 0 a 1,1 0 1,0 2,0 a 1,1 0 1,0 -2,0 M 356.43 419.39 m -0.5, 0 a 0.5,0.5 0 1,0 1,0 a 0.5,0.5 0 1,0 -1,0  M344.43 425.39 Q 322.47 425.39, 300.51 478.6 T 256.58000000000004 531.8199999999999 M 244.58 531.8199999999999 m -1, 0 a 1,1 0 1,0 2,0 a 1,1 0 1,0 -2,0 M 244.58 531.8199999999999 m -0.5, 0 a 0.5,0.5 0 1,0 1,0 a 0.5,0.5 0 1,0 -1,0  M244.58 531.8199999999999 L244.58 531.8199999999999 256.58000000000004 531.8199999999999 M250.58 537.8199999999999 L250.58 537.8199999999999 250.58 525.8199999999999" id="h2149909887" class="r"></path><path d="M 517.53 553.25 m -1, 0 a 1,1 0 1,0 2,0 a 1,1 0 1,0 -2,0 M 517.53 553.25 m -0.5, 0 a 0.5,0.5 0 1,0 1,0 a 0.5,0.5 0 1,0 -1,0  M517.53 553.25 L517.53 553.25 529.53 553.25 M 517.53 559.25 m -1, 0 a 1,1 0 1,0 2,0 a 1,1 0 1,0 -2,0 M 517.53 559.25 m -0.5, 0 a 0.5,0.5 0 1,0 1,0 a 0.5,0.5 0 1,0 -1,0  M517.53 559.25 L517.53 559.25 524.53 553.25 517.53 547.25 M 517.53 547.25 m -1, 0 a 1,1 0 1,0 2,0 a 1,1 0 1,0 -2,0 M 517.53 547.25 m -0.5, 0 a 0.5,0.5 0 1,0 1,0 a 0.5,0.5 0 1,0 -1,0  M529.53 553.25 C 579.53 553.25, 588.692 400.39, 514.26 400.39 M 502.26 400.39 m -1, 0 a 1,1 0 1,0 2,0 a 1,1 0 1,0 -2,0 M 502.26 400.39 m -0.5, 0 a 0.5,0.5 0 1,0 1,0 a 0.5,0.5 0 1,0 -1,0  M502.26 400.39 L502.26 400.39 514.26 400.39 M508.26 406.39 L508.26 406.39 508.26 394.39" id="h1446526203" class="r"></path></g><g class="hrs"></g><g class="ts"><svg width="151.38" height="250" x="356.5" y="-24.5" id="h63013430" class="t"><rect height="40" width="151.38" class="th"></rect><text x="13" y="25" class="tht">orders</text><rect height="210" width="151.38" class="t-bg"></rect><text x="13" y="61" class="tf pk">row_id<tspan x="138.38" class="ty">int</tspan></text><path d="M7,14A2,2 0 0,1 5,12A2,2 0 0,1 7,10A2,2 0 0,1 9,12A2,2 0 0,1 7,14M12.65,10C11.83,7.67 9.61,6 7, 6A6, 6 0 0, 0 1, 12A6, 6 0 0, 0 7, 18C9.61, 18 11.83, 16.33 12.65, 14H17V18H21V14H23V10H12.65Z" class="i pk" transform="translate(105.706171875, 48) scale(0.65)"></path><text x="13" y="86" class="tf">order_id<tspan x="138.38" class="ty">varchar(10)</tspan></text><text x="13" y="111" class="tf fk">created_at<tspan x="138.38" class="ty">datetime</tspan></text><text x="13" y="136" class="tf fk">item_id<tspan x="138.38" class="ty">varchar(10)</tspan></text><text x="13" y="161" class="tf">quantity<tspan x="138.38" class="ty">int</tspan></text><text x="13" y="186" class="tf fk">cust_id<tspan x="138.38" class="ty">int</tspan></text><text x="13" y="211" class="tf">delivery<tspan x="138.38" class="ty">boolean</tspan></text><text x="13" y="236" class="tf fk">add_id<tspan x="138.38" class="ty">int</tspan></text></svg><svg width="185.38" height="125" x="71.25" y="-22.75" id="h2841425641" class="t"><rect height="40" width="185.38" class="th"></rect><text x="13" y="25" class="tht">customers</text><rect height="85" width="185.38" class="t-bg"></rect><text x="13" y="61" class="tf pk">cust_id<tspan x="172.38" class="ty">int</tspan></text><path d="M7,14A2,2 0 0,1 5,12A2,2 0 0,1 7,10A2,2 0 0,1 9,12A2,2 0 0,1 7,14M12.65,10C11.83,7.67 9.61,6 7, 6A6, 6 0 0, 0 1, 12A6, 6 0 0, 0 7, 18C9.61, 18 11.83, 16.33 12.65, 14H17V18H21V14H23V10H12.65Z" class="i pk" transform="translate(139.706171875, 48) scale(0.65)"></path><text x="13" y="86" class="tf">cust_firstname<tspan x="172.38" class="ty">varchar(50)</tspan></text><text x="13" y="111" class="tf">cust_lastname<tspan x="172.38" class="ty">varchar(50)</tspan></text></svg><svg width="224.76" height="175" x="28.96" y="235.25" id="h3861953418" class="t"><rect height="40" width="224.76" class="th"></rect><text x="13" y="25" class="tht">address</text><rect height="135" width="224.76" class="t-bg"></rect><text x="13" y="61" class="tf pk">add_id<tspan x="211.76" class="ty">int</tspan></text><path d="M7,14A2,2 0 0,1 5,12A2,2 0 0,1 7,10A2,2 0 0,1 9,12A2,2 0 0,1 7,14M12.65,10C11.83,7.67 9.61,6 7, 6A6, 6 0 0, 0 1, 12A6, 6 0 0, 0 7, 18C9.61, 18 11.83, 16.33 12.65, 14H17V18H21V14H23V10H12.65Z" class="i pk" transform="translate(179.086171875, 48) scale(0.65)"></path><text x="13" y="86" class="tf">delivery_address1<tspan x="211.76" class="ty">varchar(200)</tspan></text><text x="13" y="111" class="tf">delivery_address2<tspan x="211.76" class="ty">varchar(200)?</tspan></text><text x="13" y="136" class="tf">delivery_city<tspan x="211.76" class="ty">varchar(50)</tspan></text><text x="13" y="161" class="tf">delivery_zipcode<tspan x="211.76" class="ty">varchar(20)</tspan></text></svg><svg width="174.05" height="200" x="603.25" y="-26.5" id="h1168452966" class="t"><rect height="40" width="174.05" class="th"></rect><text x="13" y="25" class="tht">item</text><rect height="160" width="174.05" class="t-bg"></rect><text x="13" y="61" class="tf pk">item_id<tspan x="161.05" class="ty">varchar(10)</tspan></text><path d="M7,14A2,2 0 0,1 5,12A2,2 0 0,1 7,10A2,2 0 0,1 9,12A2,2 0 0,1 7,14M12.65,10C11.83,7.67 9.61,6 7, 6A6, 6 0 0, 0 1, 12A6, 6 0 0, 0 7, 18C9.61, 18 11.83, 16.33 12.65, 14H17V18H21V14H23V10H12.65Z" class="i pk" transform="translate(79.69648437500001, 48) scale(0.65)"></path><text x="13" y="86" class="tf fk">sku<tspan x="161.05" class="ty">varchar(20)</tspan></text><text x="13" y="111" class="tf">item_name<tspan x="161.05" class="ty">varchar(50)</tspan></text><text x="13" y="136" class="tf">item_cat<tspan x="161.05" class="ty">varchar(50)</tspan></text><text x="13" y="161" class="tf">item_size<tspan x="161.05" class="ty">varchar(20)</tspan></text><text x="13" y="186" class="tf">item_price<tspan x="161.05" class="ty">decimal(10,2)</tspan></text></svg><svg width="166.73" height="175" x="603.54" y="271.82" id="h1537057077" class="t"><rect height="40" width="166.73" class="th"></rect><text x="13" y="25" class="tht">ingredient</text><rect height="135" width="166.73" class="t-bg"></rect><text x="13" y="61" class="tf pk">ing_id<tspan x="153.73" class="ty">varchar(10)</tspan></text><path d="M7,14A2,2 0 0,1 5,12A2,2 0 0,1 7,10A2,2 0 0,1 9,12A2,2 0 0,1 7,14M12.65,10C11.83,7.67 9.61,6 7, 6A6, 6 0 0, 0 1, 12A6, 6 0 0, 0 7, 18C9.61, 18 11.83, 16.33 12.65, 14H17V18H21V14H23V10H12.65Z" class="i pk" transform="translate(72.37648437499999, 48) scale(0.65)"></path><text x="13" y="86" class="tf">ing_name<tspan x="153.73" class="ty">varchar(200)</tspan></text><text x="13" y="111" class="tf">ing_weight<tspan x="153.73" class="ty">int</tspan></text><text x="13" y="136" class="tf">ing_meas<tspan x="153.73" class="ty">varchar(20)</tspan></text><text x="13" y="161" class="tf">ing_price<tspan x="153.73" class="ty">decimal(5,2)</tspan></text></svg><svg width="156.05" height="150" x="862.43" y="-26.86" id="h236439381" class="t"><rect height="40" width="156.05" class="th"></rect><text x="13" y="25" class="tht">recipe</text><rect height="110" width="156.05" class="t-bg"></rect><text x="13" y="61" class="tf pk">row_id<tspan x="143.05" class="ty">int</tspan></text><path d="M7,14A2,2 0 0,1 5,12A2,2 0 0,1 7,10A2,2 0 0,1 9,12A2,2 0 0,1 7,14M12.65,10C11.83,7.67 9.61,6 7, 6A6, 6 0 0, 0 1, 12A6, 6 0 0, 0 7, 18C9.61, 18 11.83, 16.33 12.65, 14H17V18H21V14H23V10H12.65Z" class="i pk" transform="translate(110.37617187500001, 48) scale(0.65)"></path><text x="13" y="86" class="tf fk">recipe_id<tspan x="143.05" class="ty">varchar(20)</tspan></text><text x="13" y="111" class="tf fk">ing_id<tspan x="143.05" class="ty">varchar(10)</tspan></text><text x="13" y="136" class="tf">quantity<tspan x="143.05" class="ty">int</tspan></text></svg><svg width="146.04" height="125" x="872.39" y="271.07" id="h2363698624" class="t"><rect height="40" width="146.04" class="th"></rect><text x="13" y="25" class="tht">inventory</text><rect height="85" width="146.04" class="t-bg"></rect><text x="13" y="61" class="tf pk">inv_id<tspan x="133.04" class="ty">int</tspan></text><path d="M7,14A2,2 0 0,1 5,12A2,2 0 0,1 7,10A2,2 0 0,1 9,12A2,2 0 0,1 7,14M12.65,10C11.83,7.67 9.61,6 7, 6A6, 6 0 0, 0 1, 12A6, 6 0 0, 0 7, 18C9.61, 18 11.83, 16.33 12.65, 14H17V18H21V14H23V10H12.65Z" class="i pk" transform="translate(100.36617187499999, 48) scale(0.65)"></path><text x="13" y="86" class="tf fk">item_id<tspan x="133.04" class="ty">varchar(10)</tspan></text><text x="13" y="111" class="tf">quantity<tspan x="133.04" class="ty">int</tspan></text></svg><svg width="145.83" height="175" x="356.43" y="268.39" id="h2836412505" class="t"><rect height="40" width="145.83" class="th"></rect><text x="13" y="25" class="tht">rota</text><rect height="135" width="145.83" class="t-bg"></rect><text x="13" y="61" class="tf pk">row_id<tspan x="132.83" class="ty">int</tspan></text><path d="M7,14A2,2 0 0,1 5,12A2,2 0 0,1 7,10A2,2 0 0,1 9,12A2,2 0 0,1 7,14M12.65,10C11.83,7.67 9.61,6 7, 6A6, 6 0 0, 0 1, 12A6, 6 0 0, 0 7, 18C9.61, 18 11.83, 16.33 12.65, 14H17V18H21V14H23V10H12.65Z" class="i pk" transform="translate(100.15617187500001, 48) scale(0.65)"></path><text x="13" y="86" class="tf">rota_id<tspan x="132.83" class="ty">varchar(20)</tspan></text><text x="13" y="111" class="tf fk">date<tspan x="132.83" class="ty">datetime</tspan></text><text x="13" y="136" class="tf fk">shift_id<tspan x="132.83" class="ty">varchar(20)</tspan></text><text x="13" y="161" class="tf fk">staff_id<tspan x="132.83" class="ty">varchar(20)</tspan></text></svg><svg width="185.83" height="175" x="58.75" y="474.82" id="h3541999088" class="t"><rect height="40" width="185.83" class="th"></rect><text x="13" y="25" class="tht">staff</text><rect height="135" width="185.83" class="t-bg"></rect><text x="13" y="61" class="tf pk">staff_id<tspan x="172.83" class="ty">varchar(20)</tspan></text><path d="M7,14A2,2 0 0,1 5,12A2,2 0 0,1 7,10A2,2 0 0,1 9,12A2,2 0 0,1 7,14M12.65,10C11.83,7.67 9.61,6 7, 6A6, 6 0 0, 0 1, 12A6, 6 0 0, 0 7, 18C9.61, 18 11.83, 16.33 12.65, 14H17V18H21V14H23V10H12.65Z" class="i pk" transform="translate(91.47648437500001, 48) scale(0.65)"></path><text x="13" y="86" class="tf">staff_firstname<tspan x="172.83" class="ty">varchar(50)</tspan></text><text x="13" y="111" class="tf">staff_lastname<tspan x="172.83" class="ty">varchar(50)</tspan></text><text x="13" y="136" class="tf">position<tspan x="172.83" class="ty">varchar(100)</tspan></text><text x="13" y="161" class="tf">hourly_rate<tspan x="172.83" class="ty">decimal(5,2)</tspan></text></svg><svg width="178.07" height="150" x="339.46" y="496.25" id="h3902158989" class="t"><rect height="40" width="178.07" class="th"></rect><text x="13" y="25" class="tht">shift</text><rect height="110" width="178.07" class="t-bg"></rect><text x="13" y="61" class="tf pk">shift_id<tspan x="165.07" class="ty">varchar(20)</tspan></text><path d="M7,14A2,2 0 0,1 5,12A2,2 0 0,1 7,10A2,2 0 0,1 9,12A2,2 0 0,1 7,14M12.65,10C11.83,7.67 9.61,6 7, 6A6, 6 0 0, 0 1, 12A6, 6 0 0, 0 7, 18C9.61, 18 11.83, 16.33 12.65, 14H17V18H21V14H23V10H12.65Z" class="i pk" transform="translate(83.716484375, 48) scale(0.65)"></path><text x="13" y="86" class="tf">day_of_week<tspan x="165.07" class="ty">varchar(10)</tspan></text><text x="13" y="111" class="tf">start_time<tspan x="165.07" class="ty">time</tspan></text><text x="13" y="136" class="tf">end_time<tspan x="165.07" class="ty">time</tspan></text></svg></g></g><text class="qdbd-link" x="10" y="20">www.quickdatabasediagrams.com</text></svg>